HIERARCHY
ROOT Hips
{
	OFFSET -14.64140 90.27770 -84.91600
	CHANNELS 6 Xposition Yposition Zposition Zrotation Xrotation Yrotation
	JOINT Spine
	{
		OFFSET 0.00000 13.20850 -1.60436
		CHANNELS 3 Zrotation Xrotation Yrotation
		JOINT Spine1
		{
			OFFSET 0.00000 8.61716 0.00000
			CHANNELS 3 Zrotation Xrotation Yrotation
			JOINT Spine2
			{
				OFFSET 0.00000 8.61717 0.00000
				CHANNELS 3 Zrotation Xrotation Yrotation
				JOINT Spine3
				{
					OFFSET 0.00000 8.61717 0.00000
					CHANNELS 3 Zrotation Xrotation Yrotation
					JOINT Neck
					{
						OFFSET 0.00000 11.07920 1.10792
						CHANNELS 3 Zrotation Xrotation Yrotation
						JOINT Neck1
						{
							OFFSET 0.00000 7.08032 0.00000
							CHANNELS 3 Zrotation Xrotation Yrotation
							JOINT Head
							{
								OFFSET 0.00000 7.08031 0.00000
								CHANNELS 3 Zrotation Xrotation Yrotation
								End site
								{
									OFFSET 0.00000 0.00000 0.00000
								}
							}
						}
					}
					JOINT RightShoulder
					{
						OFFSET -0.01000 7.91373 5.19711
						CHANNELS 3 Zrotation Xrotation Yrotation
						JOINT RightArm
						{
							OFFSET -18.41580 0.00000 0.00000
							CHANNELS 3 Zrotation Xrotation Yrotation
							JOINT RightForeArm
							{
								OFFSET -29.11090 0.00000 0.00000
								CHANNELS 3 Zrotation Xrotation Yrotation
								JOINT RightHand
								{
									OFFSET -24.65040 0.00000 0.00000
									CHANNELS 3 Zrotation Xrotation Yrotation
									JOINT RightHandThumb1
									{
										OFFSET -5.35114 -0.85590 3.97906
										CHANNELS 3 Zrotation Xrotation Yrotation
										JOINT RightHandThumb2
										{
											OFFSET -4.52789 0.00000 0.00000
											CHANNELS 3 Zrotation Xrotation Yrotation
											JOINT RightHandThumb3
											{
												OFFSET -2.46976 0.00000 0.00000
												CHANNELS 3 Zrotation Xrotation Yrotation
												End site
												{
													OFFSET 0.00000 0.00000 0.00000
												}
											}
										}
									}
									JOINT RightHandIndex1
									{
										OFFSET -14.26970 0.00000 2.88139
										CHANNELS 3 Zrotation Xrotation Yrotation
										JOINT RightHandIndex2
										{
											OFFSET -5.48836 0.00000 0.00000
											CHANNELS 3 Zrotation Xrotation Yrotation
											JOINT RightHandIndex3
											{
												OFFSET -3.01859 0.00000 0.00000
												CHANNELS 3 Zrotation Xrotation Yrotation
												End site
												{
													OFFSET 0.00000 0.00000 0.00000
												}
											}
										}
									}
									JOINT RightHandMiddle1
									{
										OFFSET -14.26970 0.00000 -0.09147
										CHANNELS 3 Zrotation Xrotation Yrotation
										JOINT RightHandMiddle2
										{
											OFFSET -6.17441 0.00000 0.00000
											CHANNELS 3 Zrotation Xrotation Yrotation
											JOINT RightHandMiddle3
											{
												OFFSET -3.56743 0.00000 0.00000
												CHANNELS 3 Zrotation Xrotation Yrotation
												End site
												{
													OFFSET 0.00000 0.00000 0.00000
												}
											}
										}
									}
									JOINT RightHandRing1
									{
										OFFSET -12.69180 0.00000 -3.06433
										CHANNELS 3 Zrotation Xrotation Yrotation
										JOINT RightHandRing2
										{
											OFFSET -5.62556 0.00000 0.00000
											CHANNELS 3 Zrotation Xrotation Yrotation
											JOINT RightHandRing3
											{
												OFFSET -3.56744 0.00000 0.00000
												CHANNELS 3 Zrotation Xrotation Yrotation
												End site
												{
													OFFSET 0.00000 0.00000 0.00000
												}
											}
										}
									}
									JOINT RightHandPinky1
									{
										OFFSET -11.11390 0.00000 -6.03719
										CHANNELS 3 Zrotation Xrotation Yrotation
										JOINT RightHandPinky2
										{
											OFFSET -4.52789 0.00000 0.00000
											CHANNELS 3 Zrotation Xrotation Yrotation
											JOINT RightHandPinky3
											{
												OFFSET -2.46976 0.00000 0.00000
												CHANNELS 3 Zrotation Xrotation Yrotation
												End site
												{
													OFFSET 0.00000 0.00000 0.00000
												}
											}
										}
									}
								}
							}
						}
					}
					JOINT LeftShoulder
					{
						OFFSET 0.01000 7.91373 5.19711
						CHANNELS 3 Zrotation Xrotation Yrotation
						JOINT LeftArm
						{
							OFFSET 18.41580 0.00000 0.00000
							CHANNELS 3 Zrotation Xrotation Yrotation
							JOINT LeftForeArm
							{
								OFFSET 29.11090 0.00000 0.00000
								CHANNELS 3 Zrotation Xrotation Yrotation
								JOINT LeftHand
								{
									OFFSET 24.65040 0.00000 0.00000
									CHANNELS 3 Zrotation Xrotation Yrotation
									JOINT LeftHandThumb1
									{
										OFFSET 5.35114 -0.85590 3.97906
										CHANNELS 3 Zrotation Xrotation Yrotation
										JOINT LeftHandThumb2
										{
											OFFSET 4.52789 0.00000 0.00000
											CHANNELS 3 Zrotation Xrotation Yrotation
											JOINT LeftHandThumb3
											{
												OFFSET 2.46977 0.00000 0.00000
												CHANNELS 3 Zrotation Xrotation Yrotation
												End site
												{
													OFFSET 0.00000 0.00000 0.00000
												}
											}
										}
									}
									JOINT LeftHandIndex1
									{
										OFFSET 14.26970 0.00000 2.88139
										CHANNELS 3 Zrotation Xrotation Yrotation
										JOINT LeftHandIndex2
										{
											OFFSET 5.48836 0.00000 0.00000
											CHANNELS 3 Zrotation Xrotation Yrotation
											JOINT LeftHandIndex3
											{
												OFFSET 3.01859 0.00000 0.00000
												CHANNELS 3 Zrotation Xrotation Yrotation
												End site
												{
													OFFSET 0.00000 0.00000 0.00000
												}
											}
										}
									}
									JOINT LeftHandMiddle1
									{
										OFFSET 14.26970 0.00000 -0.09147
										CHANNELS 3 Zrotation Xrotation Yrotation
										JOINT LeftHandMiddle2
										{
											OFFSET 6.17440 0.00000 0.00000
											CHANNELS 3 Zrotation Xrotation Yrotation
											JOINT LeftHandMiddle3
											{
												OFFSET 3.56744 0.00000 0.00000
												CHANNELS 3 Zrotation Xrotation Yrotation
												End site
												{
													OFFSET 0.00000 0.00000 0.00000
												}
											}
										}
									}
									JOINT LeftHandRing1
									{
										OFFSET 12.69180 0.00000 -3.06433
										CHANNELS 3 Zrotation Xrotation Yrotation
										JOINT LeftHandRing2
										{
											OFFSET 5.62556 0.00000 0.00000
											CHANNELS 3 Zrotation Xrotation Yrotation
											JOINT LeftHandRing3
											{
												OFFSET 3.56744 0.00000 0.00000
												CHANNELS 3 Zrotation Xrotation Yrotation
												End site
												{
													OFFSET 0.00000 0.00000 0.00000
												}
											}
										}
									}
									JOINT LeftHandPinky1
									{
										OFFSET 11.11390 0.00000 -6.03719
										CHANNELS 3 Zrotation Xrotation Yrotation
										JOINT LeftHandPinky2
										{
											OFFSET 4.52789 0.00000 0.00000
											CHANNELS 3 Zrotation Xrotation Yrotation
											JOINT LeftHandPinky3
											{
												OFFSET 2.46976 0.00000 0.00000
												CHANNELS 3 Zrotation Xrotation Yrotation
												End site
												{
													OFFSET 0.00000 0.00000 0.00000
												}
											}
										}
									}
								}
							}
						}
					}
					JOINT pCube4
					{
						OFFSET 0.00000 10.91090 1.10792
						CHANNELS 3 Zrotation Xrotation Yrotation
						End site
						{
							OFFSET 0.00000 0.00000 0.00000
						}
					}
				}
			}
		}
	}
	JOINT RightUpLeg
	{
		OFFSET -9.98441 0.00000 0.00000
		CHANNELS 3 Zrotation Xrotation Yrotation
		JOINT RightLeg
		{
			OFFSET 0.00000 -42.11790 0.00000
			CHANNELS 3 Zrotation Xrotation Yrotation
			JOINT RightFoot
			{
				OFFSET 0.00000 -45.00020 -0.00001
				CHANNELS 3 Zrotation Xrotation Yrotation
				JOINT RightForeFoot
				{
					OFFSET 0.00000 -3.74820 0.00000
					CHANNELS 3 Zrotation Xrotation Yrotation
					JOINT RightToeBase
					{
						OFFSET 0.00000 0.06325 14.43120
						CHANNELS 3 Zrotation Xrotation Yrotation
						End site
						{
							OFFSET 0.00000 0.00000 0.00000
						}
					}
				}
			}
		}
	}
	JOINT LeftUpLeg
	{
		OFFSET 9.98441 0.00000 0.00000
		CHANNELS 3 Zrotation Xrotation Yrotation
		JOINT LeftLeg
		{
			OFFSET 0.00000 -42.11800 0.00000
			CHANNELS 3 Zrotation Xrotation Yrotation
			JOINT LeftFoot
			{
				OFFSET 0.00000 -45.00070 0.00000
				CHANNELS 3 Zrotation Xrotation Yrotation
				JOINT LeftForeFoot
				{
					OFFSET 0.00000 -3.74824 0.00000
					CHANNELS 3 Zrotation Xrotation Yrotation
					JOINT LeftToeBase
					{
						OFFSET 0.00000 0.06325 14.43110
						CHANNELS 3 Zrotation Xrotation Yrotation
						End site
						{
							OFFSET 0.00000 0.00000 0.00000
						}
					}
				}
			}
		}
	}
}
MOTION
Frames: 4
Frame Time: 0.050000
-0.017735428772484223 -0.030016180287822138 0.015710045841427045 0.034201123038527854 0.04985405557473803 -0.009308764537896986 -2.596604049776982 0.9834468522344622 -0.8082963539980899 -1.0021215802313217 3.8365810669021596 0.4011208673068319 -1.1983203456247398 -1.664449237212794 -0.5821530468203443 0.10266135423014092 0.5060109529386925 -0.7401951639471338 -0.027946361216481884 12.70250253899165 -0.29268930289321315 0.03541051104792281 -0.33992060457848094 -2.8333019909890376 0.3604075856957476 -15.67581759872613 -0.19110579554682572 -4.532484821859142 1.6020813675070562 -13.99080262395139 67.8576429667713 21.836729589807 9.69958280911798 5.369613287312179 2.031195331781763 69.94384305941281 15.47291838844942 -0.2782341926139834 -2.2578063442932526 4.546983419571824 -0.12142392035284104 -1.5623681483219551 -0.04816062211383144 0.0030290973170720267 -56.25514372755236 -0.02016057302448063 0.003920676391620383 -56.21826314885629 -38.72818512015261 -0.011726154426654875 -0.02676756326535611 0.02499453364418854 0.03544850506679958 0.01187511797869153 0.009452408503437176 0.007835084647223904 0.014777834114211661 -36.690792458089696 -0.046535096372993426 0.002469315303858816 -0.0243051872242962 0.03522700038409883 -0.007863754453783945 0.008685390472204523 0.04655874826018515 -0.03096893083147521 -19.744883192038248 -0.030128959026189173 0.03206382626339645 -0.04358607042737774 -0.0027905905242339556 -0.038023880859208874 -0.033989813290990205 0.0006147673369356313 -0.017549680572272845 24.02488668929399 0.033267489363418085 -0.04288929236464189 28.862082508625026 0.03241845955558259 -0.021354968685060937 28.85115073279541 0.02179760137895768 -0.03625114408367882 5.256552012111197 1.2402611317833043 12.747055928013257 -67.58512680373236 30.763173052746367 -9.6006479039654 -13.428153020835516 0.6144865274959407 -69.75869414241218 -9.076788397664966 -0.1569608757666446 1.5716566765701336 -0.4978053729561809 0.07079021187166228 -8.172353180682059 0.00943080710544389 -0.021979661532025706 44.59962546116148 -0.04213301035008541 0.00705922695181677 44.526251448487095 12.474414451750182 -0.0013982711064874857 -0.03415068411227729 0.03966754064912069 0.02588733582840653 0.02182236890063367 -0.025308182025957016 -0.018597949019723906 0.03481690983710937 11.059824072082769 0.007530428886526641 0.011328430440838784 0.006611869684548968 0.015896452393545306 -0.0029988142767295493 0.005520585591742712 -0.039066912796562527 0.01881210106437791 4.753311582586583 0.045300788111178034 -0.038994394853082384 0.01972807244981151 0.026816935234969017 -0.03022485016499732 0.007265735851096362 0.01880585191392413 0.04748499166569485 -5.568657770913883 0.003540895033267539 -0.015400629405715748 -6.728751507374314 -0.018773503027951263 -0.04418463821372327 -6.71541562339386 0.037447042883228185 0.04241396619481817 0.046940452115710976 -0.031312426234006874 0.03514051337338271 8.074238176690939 3.520043631674191 -19.24538310144343 -0.003909794048020322 10.443131834158201 -0.011212001219858825 -5.658763053780867 -15.676744080796203 3.1747224200056086 0.019674862830278635 -0.0036135790703301653 0.03627490030266102 -0.04601282507576334 4.711543728602974 -0.04410158001427262 12.449303239381114 -8.256275835541818 6.8777958646274335 0.028497502208525687 46.42102629027965 0.0027866039327548776 -4.290578951644833 -14.723278314910123 -3.8775916914789255 -0.03301909712461094 0.003707329629826289 -0.017751083946515495 0.01273585425404827 -10.740946442963244 0.013025051401422159 
0.0009751730912023636 -0.02637705483641811 -0.03752009202776718 0.035674869424483086 -0.02946747468450102 -0.016118604635047218 -2.7118678339115667 0.99039258559736 -0.8100555420277942 -1.0551659644943672 3.8152545406350677 0.41647323914203815 -1.269143126278215 -1.6774957191695141 -0.6002573381767723 0.06938256100432816 0.48615623482201453 -0.7867577013131289 -0.0027274892098152186 12.62331390416789 -0.26706714614461485 0.08102339645152078 -0.3967977037561483 -2.6532338381439016 0.2831139694734611 -15.669249581800955 -0.23664823242928235 -4.494394631168666 1.5943066588903876 -13.954046110951689 67.67322283275524 21.8353153564183 9.427747396154526 3.9613944760717787 1.85884990467157 71.16456064909215 15.838740351699137 -0.2497994074165725 -2.464997876332866 4.486302904247302 -0.1360482590114743 -1.601150373519632 0.019943521298307027 0.009539309419006435 -56.209803672314365 0.041408425402634674 -0.02400933393334711 -56.27576447660421 -38.804711679808136 -0.039723080344650954 -0.007731777682678413 0.02497605013863448 -0.015082746894428315 0.0326332687049624 0.042316550055208596 0.011820093271005801 0.014822373189693967 -36.72032648137546 -0.019571874225065733 -0.0024128251896632356 -0.016663748833543594 -0.037242502952430666 0.04703248966729833 0.00032355491653554607 -0.011448335655544189 -0.049041670705914545 -19.722778454771206 -0.0014464637256542965 0.007084356206324312 -0.04972105686265434 -0.007753482232853313 -0.02084512824352858 0.0075151586425507635 -0.03246970734109285 0.038061199964320835 24.069985920509176 0.029378806061691447 -0.029361896944964976 28.898595510131837 0.018808580748553624 0.00672942788972878 28.8697500690528 0.0375703341364786 -0.001475238598723688 5.208621199318941 1.276224158359811 12.835007853029389 -67.54209814359712 30.616938459662514 -9.59575641321686 -11.83659031598668 -0.06383227939735336 -69.66756895817015 -9.182915757419757 -0.001849765342881022 1.509542036635644 -0.47756310860453277 0.05931913893509353 -8.147592882277545 -0.04588598783655371 -0.02985911409685946 44.58279075707099 -0.01242560925583653 0.0037461513618938674 44.56820882921794 12.477716156264782 0.01544116080329446 -0.004999864771710226 0.01986012535634161 -0.009114163988119671 0.02775445432665429 -0.03851774970134644 0.024984006105598262 0.02032447438121213 11.11471266466688 -0.015716413392342653 0.0031624267113195864 -0.03619266747865367 -0.039444870653279666 0.028933824570304283 -0.011304935957345136 0.017624115853848356 -0.029382451849756228 4.765801270941999 -0.0028449549339518297 -0.023842035323912863 -0.005515831845351982 0.0028525676299765617 0.04735472981673734 0.048965315429044726 -0.0021026854067331454 -0.017594442651880454 -5.622785636865796 -0.017089211967742733 0.010399588779205896 -6.687339837720473 0.012194979344751571 0.005591885057590503 -6.703270914096305 0.03755091706502269 -0.04871995050599281 -0.0030798450138421344 -0.018306608126713277 0.01702959988926727 8.078734823189839 3.451057663304996 -19.19937339965999 -0.02366703278516202 10.35742812443284 0.028121098525147263 -5.578622215795158 -15.665947053096014 3.1918119997976286 0.023824913714431094 0.0011233838978242398 -0.006992599194158498 0.022478852200474114 4.737637040456586 0.02681610507760294 12.487080528691 -8.226780885383311 6.873908813228328 -0.018998039756266336 46.33637431475765 0.009398921051420806 -4.347292960712162 -14.741208700368524 -3.812907006577794 0.022610086835565486 -0.04064060771760035 0.024109853378082618 -0.02292536947401247 -10.69667468560438 0.005084721661474252 
-0.020004122370239776 -0.03771755640706326 -0.020145700941957386 -0.00017355407244128574 0.034089394456104045 -0.014303883880642533 -2.8678448596451886 0.9109327413975259 -0.7486333347326094 -1.0097636915300523 3.8267325877498326 0.39584166244517055 -1.2516501691258928 -1.746441805341102 -0.5624819119497332 0.015158435979761273 0.4962825190097714 -0.7765959595497713 -0.024468961960848495 12.62456849683605 -0.12393415841910034 0.12291884385179129 -0.35533962812433606 -2.2228080102855547 0.2690163185608839 -15.569349423887218 -0.20706337086257018 -4.58423542207701 1.6347880204585339 -13.998520668880387 67.3318407552379 21.90126224346921 9.354452375751872 2.1237934919285713 1.5815508613515141 71.91358765647283 16.162791548142568 -0.3134312713109174 -2.539090524030154 4.528686760506782 -0.10997695508629232 -1.592723130601456 -0.016120273110502795 -0.034005063066014356 -56.250039073588205 -0.02879673131910713 -0.03256082950647257 -56.21279027044148 -38.75728693545215 0.020087798783197146 0.03663564489825655 0.015877878121347166 -0.0005940167029920639 0.02868445449625229 -0.023895415498331338 -0.011871598151409946 0.004578104427459837 -36.64920808863963 -0.007500987621441942 -0.03288603941861227 -0.02446196323982392 -0.025125891609606654 0.009371452662604614 0.03583734919045232 0.029270177341024214 0.002422243129495158 -19.78543811124265 0.048048938210279994 -0.02523145189295413 0.01226407806730541 0.01352866072245303 0.01113948785484944 -0.022628975292221163 -0.030629471474554748 -0.04145392867139271 24.05861301323016 -0.04691852519352152 0.010143850269890401 28.84490374874691 0.010411358932276255 0.016549731181808996 28.870208579058957 -0.03307635259141166 -0.03255530412838187 5.312773073814874 1.2427811326935436 12.870500469040026 -67.53039425517082 30.474625559776566 -9.434417183134135 -9.767011868470235 -0.9827801809660938 -68.53489240623733 -9.298761454275745 0.2651468782526416 1.4230073908669223 -0.46126107707429487 0.11652621953751005 -8.133977205321921 0.003176135340020994 -0.024044393263266156 44.54212340352964 0.034470397825432604 0.007832055710226405 44.60768846156114 12.453711728625427 -0.03758307973319301 -0.034038604404143975 0.0044850200588050365 -0.030811021642129652 0.033399431071477206 0.00526324471057102 -0.027433633561571007 -0.012973956878893671 11.100199313560207 -0.016180792397035453 -0.038288155255045676 0.02814817423596731 0.0018261817407183034 0.03704449126712928 -0.028417508324463443 0.0047753939242431015 -0.04228649730062812 4.813510097384578 0.02185812602723924 -0.011575987337290594 -0.021564430502102983 0.013031750581422875 -0.02234899456541414 -0.020922563207863502 -0.040945159103243096 0.035108305828294516 -5.632493666644571 -0.009180527280293949 0.011371879832580846 -6.691259840344622 0.017226131998956715 -0.0006966842983942231 -6.764170165579569 0.012204689810066437 -0.028509504602856454 0.01991802419474892 -0.010094759895596684 -0.01363143833915842 8.078467303648946 3.530583787729815 -19.251510172643666 -0.022378736797164234 10.43156039917399 0.028553982302899156 -5.651137041184307 -15.638784946457191 3.21130048311733 -0.022055320478502824 0.020235112226717106 0.007770121691783562 0.03537382060787009 4.658205189937482 0.02937144048632546 12.488746542878495 -8.197826756754226 6.855821560766547 0.004963216710093767 46.33873975777159 -0.013788036483866967 -4.362652595360664 -14.771481271643665 -3.8079054868375986 0.034291899905747006 -0.00889792059674693 -0.024875990638059668 0.0202015043332189 -10.73933269886882 0.041033249371624905 
0.012234925519478612 0.04082384225265928 0.035267292283314294 0.0341556498815748 -0.021103742478223525 0.04875602811887326 -3.0968813643627113 0.887088568259461 -0.724444024046122 -1.016793747347263 3.762015879265058 0.40812895309475555 -1.2413767067839123 -1.7281133430198834 -0.4938349517963875 -0.14590153138154616 0.49027500212500935 -0.7489853257735177 -0.06722002482245713 12.629750484257897 0.14180808216191393 0.12078562030688086 -0.2807932247384602 -1.9366691048923725 0.22403909138860464 -15.49855017951883 -0.11302105534690024 -4.6706611656488555 1.7757129107997611 -13.896810331943714 67.06549960689014 22.17301419541314 9.446563386693066 0.5759567074694165 1.3397448004983588 71.77977226701007 16.662518945123207 -0.3653044320100616 -2.7380640962640888 4.516172824551768 -0.07739989688873974 -1.5890612739936885 0.028105841700725526 0.024700260383458964 -56.23163053710984 -0.04507379504727376 -0.029104959036350204 -56.19320061068422 -38.77621039578826 0.008606998874094371 -0.021162278542469066 -0.010163272788371747 -0.035733745839079574 -0.04019817907261063 -0.04030856061521561 -0.030308504379727805 -0.0239994539178168 -36.69226310929395 -0.03944544186968779 0.0026512576919954524 0.006862258133153777 -0.0003871756983559883 -0.020918838137566648 -0.007827614375208963 -0.004295991445105007 0.010468518387075585 -19.807586422634717 -0.037007288299327167 0.0027856014411516664 0.010310268585127921 0.017008328816599638 0.04022575429943961 -0.014174035922733195 0.029025262923752928 0.043615325426868086 24.01878785169377 0.04710422116463047 -0.009148890880594245 28.90600054686568 -0.015173572335555571 0.026123813833012967 28.82859748855442 -0.0013394630654312073 0.004719131865133061 5.331036718602354 1.305714455891123 12.883879930332226 -67.42634051146695 30.084685940324952 -9.09869719915658 -7.816197182865238 -1.8599012096247014 -66.67144722781244 -9.495367784531329 0.5549568933402088 1.3648144499323471 -0.446090831436701 0.06802976085773636 -8.158200489210625 0.0431849965623786 -0.024248253606485113 44.54494739877262 -0.03402872472692113 0.00539698373574566 44.55709573108748 12.498282394076252 -0.02689018197124668 0.024340160061313565 0.01784191981913828 -0.014075162607518212 0.017535620536925187 -0.024317677290142885 -0.001596495533222249 0.016631436109557668 11.110713603986744 -0.0006187727441329219 0.03643231024249224 -0.010955513840131806 -0.046002640732820094 -0.006925586388951969 -0.0310126913772778 -0.0013975384953585869 -0.008528795600496332 4.74682467860439 -0.03537014738608148 0.03160133251719521 -0.012730890926052596 0.04245095473780718 -0.001867495193177003 0.006734378586195568 0.004010535585010408 -0.006430379783522593 -5.567987061277843 -0.03566930355735177 -0.01670024703080166 -6.725929505110017 -0.021126671374883076 0.045299778950304764 -6.739407056747341 0.0019200281398811909 -0.027240427763272505 0.03209575352199782 -0.009176941461488489 -0.007328839706357969 8.049348727255175 3.50498407142101 -19.178659697192963 0.005753840402558335 10.434890433368805 -0.02108452114991807 -5.616206579161918 -15.64736273983841 3.2085026313363714 -0.012306474215164169 0.032993100566773056 0.0018654894818691497 0.0004037759657726927 4.711933726020522 0.006766882667174261 12.430312915205555 -8.192671286397102 6.916514112352826 -0.007905744007124784 46.38490970720679 0.036439505224342625 -4.285474697666055 -14.786267157280184 -3.791308974684733 0.012355913273152195 -0.024778942071659645 -5.039265370214698e-05 0.03288641405876146 -10.723535552263055 0.04793226173505185 
